<svg width="32" height="32" viewBox="0 0 32 32" fill="none" xmlns="http://www.w3.org/2000/svg">
<rect width="32" height="32" rx="5" fill="#380C49"/>
<path d="M26.0622 15.9995C26.0646 16.2871 25.975 16.5683 25.806 16.804C25.637 17.0396 25.3969 17.2181 25.1192 17.3145L19.4192 19.3362L17.3475 24.896C17.2454 25.1645 17.0616 25.3961 16.8206 25.5596C16.5797 25.7232 16.2932 25.8108 15.9997 25.8108C15.7062 25.8108 15.4197 25.7232 15.1788 25.5596C14.9378 25.3961 14.754 25.1645 14.6519 24.896L12.5796 19.33L6.88077 17.3145C6.60557 17.2149 6.36821 17.0355 6.20059 16.8004C6.03296 16.5654 5.94312 16.2859 5.94312 15.9995C5.94312 15.7132 6.03296 15.4337 6.20059 15.1986C6.36821 14.9635 6.60557 14.7842 6.88077 14.6846L12.5853 12.6629L14.6519 7.10302C14.754 6.83453 14.9378 6.60296 15.1788 6.43943C15.4197 6.27589 15.7062 6.18823 15.9997 6.18823C16.2932 6.18823 16.5797 6.27589 16.8206 6.43943C17.0616 6.60296 17.2454 6.83453 17.3475 7.10302L19.4198 12.6685L25.1186 14.6846C25.3965 14.7809 25.6367 14.9593 25.8058 15.195C25.9749 15.4306 26.0645 15.7119 26.0622 15.9995Z" fill="#AD28EB"/>
</svg>
